<?xml version="1.0" encoding="UTF-8" standalone="no"?>
<!DOCTYPE svg PUBLIC "-//W3C//DTD SVG 1.1//EN"
 "http://www.w3.org/Graphics/SVG/1.1/DTD/svg11.dtd">
<!-- Generated by graphviz version 2.47.0 (20210316.0004)
 -->
<!-- Title: dependencies Pages: 1 -->
<svg width="896pt" height="298pt"
 viewBox="0.00 0.00 896.00 298.00" xmlns="http://www.w3.org/2000/svg" xmlns:xlink="http://www.w3.org/1999/xlink">
<g id="graph0" class="graph" transform="scale(1 1) rotate(0) translate(4 294)">
<title>dependencies</title>
<polygon fill="white" stroke="transparent" points="-4,4 -4,-294 892,-294 892,4 -4,4"/>
<text text-anchor="start" x="423.01" y="-42.4" font-family="Times-12" font-weight="bold" font-size="14.00">Legend</text>
<polygon fill="#ffffb3" stroke="transparent" points="210,-10 210,-30 230,-30 230,-10 210,-10"/>
<text text-anchor="start" x="233.63" y="-15.4" font-family="Times-12" font-size="14.00"> &#160;Declarations</text>
<polygon fill="#8dd3c7" stroke="transparent" points="323,-10 323,-30 343,-30 343,-10 323,-10"/>
<text text-anchor="start" x="346.73" y="-15.4" font-family="Times-12" font-size="14.00"> &#160;Module</text>
<polygon fill="#80b1d3" stroke="transparent" points="409,-10 409,-30 429,-30 429,-10 409,-10"/>
<text text-anchor="start" x="432.78" y="-15.4" font-family="Times-12" font-size="14.00"> &#160;Bootstrap</text>
<polygon fill="#fdb462" stroke="transparent" points="506,-10 506,-30 526,-30 526,-10 506,-10"/>
<text text-anchor="start" x="529.67" y="-15.4" font-family="Times-12" font-size="14.00"> &#160;Providers</text>
<polygon fill="#fb8072" stroke="transparent" points="602,-10 602,-30 622,-30 622,-10 602,-10"/>
<text text-anchor="start" x="625.73" y="-15.4" font-family="Times-12" font-size="14.00"> &#160;Exports</text>
<g id="clust7" class="cluster">
<title>cluster_AuthModule</title>
<polygon fill="none" stroke="black" stroke-dasharray="1,5" points="730,-70 730,-282 880,-282 880,-70 730,-70"/>
</g>
<g id="clust12" class="cluster">
<title>cluster_AuthModule_providers</title>
<polygon fill="none" stroke="black" points="738,-78 738,-130 872,-130 872,-78 738,-78"/>
</g>
<g id="clust10" class="cluster">
<title>cluster_AuthModule_exports</title>
<polygon fill="none" stroke="black" points="745,-222 745,-274 851,-274 851,-222 745,-222"/>
</g>
<g id="clust1" class="cluster">
<title>cluster_AppModule</title>
<polygon fill="none" stroke="black" stroke-dasharray="1,5" points="168,-70 168,-274 440,-274 440,-70 168,-70"/>
</g>
<g id="clust3" class="cluster">
<title>cluster_AppModule_imports</title>
<polygon fill="none" stroke="black" points="314,-78 314,-206 422,-206 422,-78 314,-78"/>
</g>
<g id="clust6" class="cluster">
<title>cluster_AppModule_providers</title>
<polygon fill="none" stroke="black" points="176,-154 176,-206 306,-206 306,-154 176,-154"/>
</g>
<g id="clust19" class="cluster">
<title>cluster_UsersModule</title>
<polygon fill="none" stroke="black" stroke-dasharray="1,5" points="448,-146 448,-214 722,-214 722,-146 448,-146"/>
</g>
<g id="clust24" class="cluster">
<title>cluster_UsersModule_providers</title>
<polygon fill="none" stroke="black" points="574,-154 574,-206 714,-206 714,-154 574,-154"/>
</g>
<g id="clust22" class="cluster">
<title>cluster_UsersModule_exports</title>
<polygon fill="none" stroke="black" points="456,-154 456,-206 566,-206 566,-154 456,-154"/>
</g>
<g id="clust13" class="cluster">
<title>cluster_PostsModule</title>
<polygon fill="none" stroke="black" stroke-dasharray="1,5" points="8,-70 8,-138 160,-138 160,-70 8,-70"/>
</g>
<g id="clust18" class="cluster">
<title>cluster_PostsModule_providers</title>
<polygon fill="none" stroke="black" points="16,-78 16,-130 152,-130 152,-78 16,-78"/>
</g>
<!-- AuthModule -->
<g id="node1" class="node">
<title>AuthModule</title>
<polygon fill="#8dd3c7" stroke="black" points="841.55,-198 838.55,-202 817.55,-202 814.55,-198 754.45,-198 754.45,-162 841.55,-162 841.55,-198"/>
<text text-anchor="middle" x="798" y="-175.8" font-family="Times,serif" font-size="14.00">AuthModule</text>
</g>
<!-- AppModule -->
<g id="node4" class="node">
<title>AppModule</title>
<polygon fill="#8dd3c7" stroke="black" points="419.66,-266 416.66,-270 395.66,-270 392.66,-266 336.34,-266 336.34,-230 419.66,-230 419.66,-266"/>
<text text-anchor="middle" x="378" y="-243.8" font-family="Times,serif" font-size="14.00">AppModule</text>
</g>
<!-- AuthModule&#45;&gt;AppModule -->
<g id="edge1" class="edge">
<title>AuthModule&#45;&gt;AppModule</title>
<path fill="none" stroke="black" d="M754.31,-180C751.33,-180 749.48,-180 749.48,-180 749.48,-180 749.48,-248 749.48,-248 749.48,-248 429.89,-248 429.89,-248"/>
<polygon fill="black" stroke="black" points="429.89,-244.5 419.89,-248 429.89,-251.5 429.89,-244.5"/>
</g>
<!-- AuthService  -->
<g id="node6" class="node">
<title>AuthService </title>
<polygon fill="#fb8072" stroke="black" points="842.98,-266 753.02,-266 753.02,-230 842.98,-230 842.98,-266"/>
<text text-anchor="middle" x="798" y="-243.8" font-family="Times,serif" font-size="14.00">AuthService </text>
</g>
<!-- AuthModule&#45;&gt;AuthService  -->
<g id="edge5" class="edge">
<title>AuthModule&#45;&gt;AuthService </title>
<path fill="none" stroke="black" stroke-dasharray="5,2" d="M798,-198.22C798,-198.22 798,-219.73 798,-219.73"/>
<polygon fill="black" stroke="black" points="794.5,-219.73 798,-229.73 801.5,-219.73 794.5,-219.73"/>
</g>
<!-- PostsModule -->
<g id="node2" class="node">
<title>PostsModule</title>
<polygon fill="#8dd3c7" stroke="black" points="411.61,-198 408.61,-202 387.61,-202 384.61,-198 322.39,-198 322.39,-162 411.61,-162 411.61,-198"/>
<text text-anchor="middle" x="367" y="-175.8" font-family="Times,serif" font-size="14.00">PostsModule</text>
</g>
<!-- PostsModule&#45;&gt;AppModule -->
<g id="edge2" class="edge">
<title>PostsModule&#45;&gt;AppModule</title>
<path fill="none" stroke="black" d="M373.86,-198.22C373.86,-198.22 373.86,-219.73 373.86,-219.73"/>
<polygon fill="black" stroke="black" points="370.36,-219.73 373.86,-229.73 377.36,-219.73 370.36,-219.73"/>
</g>
<!-- UsersModule -->
<g id="node3" class="node">
<title>UsersModule</title>
<polygon fill="#8dd3c7" stroke="black" points="413.92,-122 410.92,-126 389.92,-126 386.92,-122 322.08,-122 322.08,-86 413.92,-86 413.92,-122"/>
<text text-anchor="middle" x="368" y="-99.8" font-family="Times,serif" font-size="14.00">UsersModule</text>
</g>
<!-- UsersModule&#45;&gt;PostsModule -->
<g id="edge7" class="edge">
<title>UsersModule&#45;&gt;PostsModule</title>
<path fill="none" stroke="black" d="M367,-122.01C367,-122.01 367,-151.85 367,-151.85"/>
<polygon fill="black" stroke="black" points="363.5,-151.85 367,-161.85 370.5,-151.85 363.5,-151.85"/>
</g>
<!-- UsersModule&#45;&gt;AppModule -->
<g id="edge3" class="edge">
<title>UsersModule&#45;&gt;AppModule</title>
<path fill="none" stroke="black" d="M322.17,-110C312.86,-110 305.84,-110 305.84,-110 305.84,-110 305.84,-242 305.84,-242 305.84,-242 326.03,-242 326.03,-242"/>
<polygon fill="black" stroke="black" points="326.03,-245.5 336.03,-242 326.03,-238.5 326.03,-245.5"/>
</g>
<!-- UsersService  -->
<g id="node9" class="node">
<title>UsersService </title>
<polygon fill="#fb8072" stroke="black" points="557.85,-198 464.15,-198 464.15,-162 557.85,-162 557.85,-198"/>
<text text-anchor="middle" x="511" y="-175.8" font-family="Times,serif" font-size="14.00">UsersService </text>
</g>
<!-- UsersModule&#45;&gt;UsersService  -->
<g id="edge9" class="edge">
<title>UsersModule&#45;&gt;UsersService </title>
<path fill="none" stroke="black" stroke-dasharray="5,2" d="M414.03,-110C455.84,-110 511,-110 511,-110 511,-110 511,-151.97 511,-151.97"/>
<polygon fill="black" stroke="black" points="507.5,-151.97 511,-161.97 514.5,-151.97 507.5,-151.97"/>
</g>
<!-- AppService -->
<g id="node5" class="node">
<title>AppService</title>
<ellipse fill="#fdb462" stroke="black" cx="241" cy="-180" rx="56.74" ry="18"/>
<text text-anchor="middle" x="241" y="-175.8" font-family="Times,serif" font-size="14.00">AppService</text>
</g>
<!-- AppService&#45;&gt;AppModule -->
<g id="edge4" class="edge">
<title>AppService&#45;&gt;AppModule</title>
<path fill="none" stroke="black" d="M241,-198.29C241,-220.21 241,-254 241,-254 241,-254 326.15,-254 326.15,-254"/>
<polygon fill="black" stroke="black" points="326.15,-257.5 336.15,-254 326.15,-250.5 326.15,-257.5"/>
</g>
<!-- AuthService -->
<g id="node7" class="node">
<title>AuthService</title>
<ellipse fill="#fdb462" stroke="black" cx="805" cy="-104" rx="59.11" ry="18"/>
<text text-anchor="middle" x="805" y="-99.8" font-family="Times,serif" font-size="14.00">AuthService</text>
</g>
<!-- AuthService&#45;&gt;AuthModule -->
<g id="edge6" class="edge">
<title>AuthService&#45;&gt;AuthModule</title>
<path fill="none" stroke="black" d="M798,-122.01C798,-122.01 798,-151.85 798,-151.85"/>
<polygon fill="black" stroke="black" points="794.5,-151.85 798,-161.85 801.5,-151.85 794.5,-151.85"/>
</g>
<!-- PostsService -->
<g id="node8" class="node">
<title>PostsService</title>
<ellipse fill="#fdb462" stroke="black" cx="84" cy="-104" rx="60.27" ry="18"/>
<text text-anchor="middle" x="84" y="-99.8" font-family="Times,serif" font-size="14.00">PostsService</text>
</g>
<!-- PostsService&#45;&gt;PostsModule -->
<g id="edge8" class="edge">
<title>PostsService&#45;&gt;PostsModule</title>
<path fill="none" stroke="black" d="M141.17,-98C209.3,-98 314.07,-98 314.07,-98 314.07,-98 314.07,-180 314.07,-180 314.07,-180 314.89,-180 314.89,-180"/>
<polygon fill="black" stroke="black" points="312.34,-183.5 322.34,-180 312.34,-176.5 312.34,-183.5"/>
</g>
<!-- UsersService -->
<g id="node10" class="node">
<title>UsersService</title>
<ellipse fill="#fdb462" stroke="black" cx="644" cy="-180" rx="61.95" ry="18"/>
<text text-anchor="middle" x="644" y="-175.8" font-family="Times,serif" font-size="14.00">UsersService</text>
</g>
<!-- UsersService&#45;&gt;UsersModule -->
<g id="edge10" class="edge">
<title>UsersService&#45;&gt;UsersModule</title>
<path fill="none" stroke="black" d="M644,-161.8C644,-137.64 644,-98 644,-98 644,-98 423.89,-98 423.89,-98"/>
<polygon fill="black" stroke="black" points="423.89,-94.5 413.89,-98 423.89,-101.5 423.89,-94.5"/>
</g>
</g>
</svg>
